<svg width="196" height="30" viewBox="0 0 196 30" fill="none" xmlns="http://www.w3.org/2000/svg">
<line x1="0.558333" y1="14.6084" x2="88.775" y2="14.6084" stroke="#E36F2D" stroke-width="1.11667" stroke-linecap="round"/>
<path d="M110.252 14.9851C110.252 13.6183 110.56 12.3922 111.176 11.3068C111.793 10.208 112.63 9.3504 113.689 8.734C114.761 8.1176 115.947 7.8094 117.247 7.8094C118.774 7.8094 120.107 8.1779 121.246 8.9149C122.385 9.6519 123.216 10.6971 123.739 12.0505H121.548C121.159 11.2063 120.597 10.5564 119.86 10.1008C119.136 9.6452 118.265 9.4174 117.247 9.4174C116.268 9.4174 115.391 9.6452 114.613 10.1008C113.836 10.5564 113.227 11.2063 112.784 12.0505C112.342 12.8813 112.121 13.8595 112.121 14.9851C112.121 16.0973 112.342 17.0755 112.784 17.9197C113.227 18.7505 113.836 19.3937 114.613 19.8493C115.391 20.3049 116.268 20.5327 117.247 20.5327C118.265 20.5327 119.136 20.3116 119.86 19.8694C120.597 19.4138 121.159 18.7639 121.548 17.9197H123.739C123.216 19.2597 122.385 20.2982 121.246 21.0352C120.107 21.7588 118.774 22.1206 117.247 22.1206C115.947 22.1206 114.761 21.8191 113.689 21.2161C112.63 20.5997 111.793 19.7488 111.176 18.6634C110.56 17.578 110.252 16.3519 110.252 14.9851ZM126.582 16.4524C126.582 15.3268 126.81 14.3419 127.266 13.4977C127.721 12.6401 128.344 11.9768 129.135 11.5078C129.939 11.0388 130.83 10.8043 131.808 10.8043C132.773 10.8043 133.611 11.012 134.321 11.4274C135.031 11.8428 135.56 12.3654 135.909 12.9952V10.9852H137.758V22H135.909V19.9498C135.547 20.593 135.004 21.129 134.281 21.5578C133.57 21.9732 132.74 22.1809 131.788 22.1809C130.81 22.1809 129.926 21.9397 129.135 21.4573C128.344 20.9749 127.721 20.2982 127.266 19.4272C126.81 18.5562 126.582 17.5646 126.582 16.4524ZM135.909 16.4725C135.909 15.6417 135.741 14.9181 135.406 14.3017C135.071 13.6853 134.616 13.2163 134.039 12.8947C133.477 12.5597 132.853 12.3922 132.17 12.3922C131.487 12.3922 130.864 12.553 130.301 12.8746C129.738 13.1962 129.289 13.6652 128.954 14.2816C128.619 14.898 128.452 15.6216 128.452 16.4524C128.452 17.2966 128.619 18.0336 128.954 18.6634C129.289 19.2798 129.738 19.7555 130.301 20.0905C130.864 20.4121 131.487 20.5729 132.17 20.5729C132.853 20.5729 133.477 20.4121 134.039 20.0905C134.616 19.7555 135.071 19.2798 135.406 18.6634C135.741 18.0336 135.909 17.3033 135.909 16.4725ZM143.884 12.4927V18.985C143.884 19.521 143.998 19.9029 144.226 20.1307C144.453 20.3451 144.849 20.4523 145.412 20.4523H146.758V22H145.11C144.092 22 143.328 21.7655 142.819 21.2965C142.309 20.8275 142.055 20.057 142.055 18.985V12.4927H140.628V10.9852H142.055V8.2114H143.884V10.9852H146.758V12.4927H143.884ZM149.095 16.4524C149.095 15.3268 149.323 14.3419 149.778 13.4977C150.234 12.6401 150.857 11.9768 151.648 11.5078C152.452 11.0388 153.343 10.8043 154.321 10.8043C155.286 10.8043 156.123 11.012 156.834 11.4274C157.544 11.8428 158.073 12.3654 158.421 12.9952V10.9852H160.271V22H158.421V19.9498C158.06 20.593 157.517 21.129 156.793 21.5578C156.083 21.9732 155.252 22.1809 154.301 22.1809C153.323 22.1809 152.438 21.9397 151.648 21.4573C150.857 20.9749 150.234 20.2982 149.778 19.4272C149.323 18.5562 149.095 17.5646 149.095 16.4524ZM158.421 16.4725C158.421 15.6417 158.254 14.9181 157.919 14.3017C157.584 13.6853 157.128 13.2163 156.552 12.8947C155.989 12.5597 155.366 12.3922 154.683 12.3922C153.999 12.3922 153.376 12.553 152.814 12.8746C152.251 13.1962 151.802 13.6652 151.467 14.2816C151.132 14.898 150.964 15.6216 150.964 16.4524C150.964 17.2966 151.132 18.0336 151.467 18.6634C151.802 19.2798 152.251 19.7555 152.814 20.0905C153.376 20.4121 153.999 20.5729 154.683 20.5729C155.366 20.5729 155.989 20.4121 156.552 20.0905C157.128 19.7555 157.584 19.2798 157.919 18.6634C158.254 18.0336 158.421 17.3033 158.421 16.4725ZM165.995 7.126V22H164.166V7.126H165.995ZM174.72 22.1809C173.688 22.1809 172.75 21.9464 171.906 21.4774C171.075 21.0084 170.419 20.3451 169.936 19.4875C169.467 18.6165 169.233 17.6115 169.233 16.4725C169.233 15.3469 169.474 14.3553 169.956 13.4977C170.452 12.6267 171.122 11.9634 171.966 11.5078C172.81 11.0388 173.755 10.8043 174.8 10.8043C175.846 10.8043 176.79 11.0388 177.634 11.5078C178.479 11.9634 179.142 12.62 179.624 13.4776C180.12 14.3352 180.368 15.3335 180.368 16.4725C180.368 17.6115 180.113 18.6165 179.604 19.4875C179.108 20.3451 178.432 21.0084 177.574 21.4774C176.717 21.9464 175.765 22.1809 174.72 22.1809ZM174.72 20.5729C175.377 20.5729 175.993 20.4188 176.569 20.1106C177.145 19.8024 177.608 19.3401 177.956 18.7237C178.318 18.1073 178.499 17.3569 178.499 16.4725C178.499 15.5881 178.325 14.8377 177.976 14.2213C177.628 13.6049 177.172 13.1493 176.609 12.8545C176.047 12.5463 175.437 12.3922 174.78 12.3922C174.11 12.3922 173.494 12.5463 172.931 12.8545C172.382 13.1493 171.939 13.6049 171.604 14.2213C171.269 14.8377 171.102 15.5881 171.102 16.4725C171.102 17.3703 171.263 18.1274 171.584 18.7438C171.919 19.3602 172.362 19.8225 172.911 20.1307C173.46 20.4255 174.063 20.5729 174.72 20.5729ZM188.12 10.8043C189.071 10.8043 189.902 11.012 190.612 11.4274C191.336 11.8428 191.872 12.3654 192.22 12.9952V10.9852H194.069V22.2412C194.069 23.2462 193.855 24.1373 193.426 24.9145C192.997 25.7051 192.381 26.3215 191.577 26.7637C190.786 27.2059 189.862 27.427 188.803 27.427C187.356 27.427 186.15 27.0853 185.185 26.4019C184.22 25.7185 183.651 24.7872 183.477 23.608H185.286C185.487 24.278 185.902 24.814 186.532 25.216C187.162 25.6314 187.919 25.8391 188.803 25.8391C189.808 25.8391 190.625 25.5242 191.255 24.8944C191.898 24.2646 192.22 23.3802 192.22 22.2412V19.9297C191.858 20.5729 191.322 21.1089 190.612 21.5377C189.902 21.9665 189.071 22.1809 188.12 22.1809C187.141 22.1809 186.25 21.9397 185.446 21.4573C184.656 20.9749 184.033 20.2982 183.577 19.4272C183.121 18.5562 182.894 17.5646 182.894 16.4524C182.894 15.3268 183.121 14.3419 183.577 13.4977C184.033 12.6401 184.656 11.9768 185.446 11.5078C186.25 11.0388 187.141 10.8043 188.12 10.8043ZM192.22 16.4725C192.22 15.6417 192.053 14.9181 191.718 14.3017C191.383 13.6853 190.927 13.2163 190.351 12.8947C189.788 12.5597 189.165 12.3922 188.481 12.3922C187.798 12.3922 187.175 12.553 186.612 12.8746C186.049 13.1962 185.6 13.6652 185.265 14.2816C184.93 14.898 184.763 15.6216 184.763 16.4524C184.763 17.2966 184.93 18.0336 185.265 18.6634C185.6 19.2798 186.049 19.7555 186.612 20.0905C187.175 20.4121 187.798 20.5729 188.481 20.5729C189.165 20.5729 189.788 20.4121 190.351 20.0905C190.927 19.7555 191.383 19.2798 191.718 18.6634C192.053 18.0336 192.22 17.3033 192.22 16.4725Z" fill="#EB4C56"/>
</svg>
