<svg width="27" height="25" viewBox="0 0 27 25" fill="none" xmlns="http://www.w3.org/2000/svg">
<path d="M2.14012 14.574L3.10709 14.3245L2.14012 14.574ZM2.14012 7.96844L3.10709 8.21794L2.14012 7.96844ZM22.7434 7.96844L23.7103 7.71894L23.7103 7.71894L22.7434 7.96844ZM22.7434 14.574L23.7103 14.8235L22.7434 14.574ZM16.0748 20.6363L15.8665 19.6597L16.0748 20.6363ZM8.80869 20.6363L8.60042 21.613L8.80869 20.6363ZM8.80869 1.9061L8.60042 0.929429L8.60042 0.929429L8.80869 1.9061ZM16.0748 1.9061L16.2831 0.929429L16.2831 0.929429L16.0748 1.9061ZM25.0152 24.0512C25.4233 24.4222 26.0548 24.3921 26.4258 23.984C26.7968 23.5759 26.7668 22.9444 26.3587 22.5734L25.0152 24.0512ZM3.10709 14.3245C2.58878 12.3158 2.58878 10.2267 3.10709 8.21794L1.17316 7.71893C0.570405 10.055 0.570405 12.4875 1.17316 14.8235L3.10709 14.3245ZM21.7764 8.21794C22.2947 10.2267 22.2947 12.3158 21.7764 14.3245L23.7103 14.8235C24.3131 12.4875 24.3131 10.055 23.7103 7.71894L21.7764 8.21794ZM15.8665 19.6597C13.6142 20.14 11.2693 20.14 9.01696 19.6597L8.60042 21.613C11.1273 22.1519 13.7562 22.1519 16.2831 21.613L15.8665 19.6597ZM9.01696 2.88278C11.2693 2.40249 13.6142 2.40249 15.8665 2.88278L16.2831 0.929429C13.7562 0.39058 11.1273 0.390581 8.60042 0.929429L9.01696 2.88278ZM9.01696 19.6597C6.03718 19.0242 3.77854 16.9268 3.10709 14.3245L1.17316 14.8235C2.054 18.2373 4.96252 20.8373 8.60042 21.613L9.01696 19.6597ZM16.2831 21.613C19.921 20.8373 22.8295 18.2373 23.7103 14.8235L21.7764 14.3245C21.105 16.9268 18.8463 19.0242 15.8665 19.6597L16.2831 21.613ZM15.8665 2.88278C18.8463 3.5182 21.105 5.61565 21.7764 8.21794L23.7103 7.71894C22.8295 4.30515 19.921 1.70519 16.2831 0.929429L15.8665 2.88278ZM8.60042 0.929429C4.96252 1.70519 2.054 4.30515 1.17316 7.71893L3.10709 8.21794C3.77854 5.61564 6.03717 3.5182 9.01696 2.88278L8.60042 0.929429ZM20.1354 19.615L25.0152 24.0512L26.3587 22.5734L21.4789 18.1372L20.1354 19.615Z" fill="white"/>
</svg>
