<svg width="29" height="29" viewBox="0 0 29 29" fill="none" xmlns="http://www.w3.org/2000/svg">
<path fill-rule="evenodd" clip-rule="evenodd" d="M27.248 1.7143C27.5712 2.03755 27.6807 2.51739 27.5297 2.94887L19.1997 26.7489C19.0385 27.2094 18.6125 27.5249 18.125 27.5448C17.6375 27.5647 17.1872 27.2849 16.9891 26.8391L12.415 16.5473L2.12321 11.9732C1.67734 11.775 1.39761 11.3248 1.4175 10.8372C1.43739 10.3497 1.75286 9.92375 2.21339 9.76256L26.0134 1.43256C26.4449 1.28155 26.9247 1.39105 27.248 1.7143ZM14.7359 15.9093L17.9449 23.1296L23.5607 7.08452L14.7359 15.9093ZM21.8777 5.40161L5.83269 11.0174L13.053 14.2264L21.8777 5.40161Z" fill="white"/>
</svg>
