<svg width="24" height="25" viewBox="0 0 24 25" fill="none" xmlns="http://www.w3.org/2000/svg">
<path d="M2.5073 18.5264L1.59655 18.936L1.59655 18.936L2.5073 18.5264ZM2.04526 11.7466L1.08851 11.4604L1.08851 11.4604L2.04526 11.7466ZM22.5343 11.7466L23.4911 11.4604L23.4911 11.4604L22.5343 11.7466ZM22.0722 18.5264L21.1615 18.1167L21.1615 18.1167L22.0722 18.5264ZM15.0013 23.1217L14.8615 22.1329L14.8615 22.1329L15.0013 23.1217ZM9.57818 23.1217L9.4383 24.1105L9.4383 24.1105L9.57818 23.1217ZM7.07348 7.31648L6.8928 6.33433L7.07348 7.31648ZM17.5061 7.31648L17.3254 8.29863L17.3254 8.29863L17.5061 7.31648ZM8.58124 22.9807L8.72113 21.9919L8.72113 21.9919L8.58124 22.9807ZM2.63098 18.8014L3.54174 18.3917L3.54173 18.3917L2.63098 18.8014ZM15.9983 22.9807L16.1382 23.9695L16.1382 23.9695L15.9983 22.9807ZM21.9486 18.8014L22.8593 19.211L22.8593 19.211L21.9486 18.8014ZM22.4324 11.4059L21.4757 11.6921L21.4757 11.6921L22.4324 11.4059ZM2.14716 11.4059L3.10392 11.6921L3.10392 11.6921L2.14716 11.4059ZM16.5207 7.60745L15.6216 7.17284L15.6216 7.17284L16.5207 7.60745ZM15.3379 7.75962C15.0979 8.25618 15.3059 8.8533 15.8024 9.09333C16.299 9.33336 16.8961 9.1254 17.1361 8.62884L15.3379 7.75962ZM8.05888 7.60745L8.95798 7.17284L8.95798 7.17284L8.05888 7.60745ZM7.44342 8.62884C7.68345 9.1254 8.28057 9.33336 8.77713 9.09333C9.27369 8.8533 9.48165 8.25618 9.24162 7.75962L7.44342 8.62884ZM11.2817 1.61374L11.4348 2.60057L11.4349 2.60057L11.2817 1.61374ZM11.4381 1.58948L11.285 0.602651L11.285 0.602651L11.4381 1.58948ZM13.1414 1.58948L12.9883 2.5763L12.9883 2.5763L13.1414 1.58948ZM13.2978 1.61374L13.4509 0.626917L13.4509 0.626917L13.2978 1.61374ZM16.8507 4.60863L17.8213 4.37402L17.8213 4.37402L16.8507 4.60863ZM7.7289 4.60863L8.69959 4.84323L8.69959 4.84323L7.7289 4.60863ZM15.8584 21.9919L14.8615 22.1329L15.1412 24.1105L16.1382 23.9695L15.8584 21.9919ZM9.71807 22.1329L8.72113 21.9919L8.44136 23.9695L9.4383 24.1105L9.71807 22.1329ZM21.4757 11.6921L21.5776 12.0328L23.4911 11.4604L23.3892 11.1197L21.4757 11.6921ZM21.1615 18.1167L21.0378 18.3918L22.8593 19.211L22.983 18.936L21.1615 18.1167ZM3.54173 18.3917L3.41805 18.1167L1.59655 18.936L1.72023 19.211L3.54173 18.3917ZM3.00201 12.0328L3.10392 11.6921L1.19041 11.1197L1.08851 11.4604L3.00201 12.0328ZM3.41805 18.1167C2.54325 16.1718 2.39989 14.0459 3.00201 12.0328L1.08851 11.4604C0.347194 13.9389 0.527236 16.5586 1.59655 18.936L3.41805 18.1167ZM21.5776 12.0328C22.1797 14.0459 22.0363 16.1718 21.1615 18.1167L22.983 18.936C24.0523 16.5586 24.2324 13.9389 23.4911 11.4604L21.5776 12.0328ZM14.8615 22.1329C13.1584 22.3739 11.4212 22.3739 9.71806 22.1329L9.4383 24.1105C11.327 24.3777 13.2525 24.3777 15.1412 24.1105L14.8615 22.1329ZM7.25416 8.29863C10.5741 7.6879 14.0054 7.6879 17.3254 8.29863L17.6868 6.33433C14.1279 5.67964 10.4517 5.67964 6.8928 6.33433L7.25416 8.29863ZM8.72113 21.9919C6.31656 21.6517 4.37539 20.2452 3.54174 18.3917L1.72023 19.211C2.87378 21.7758 5.45735 23.5473 8.44136 23.9695L8.72113 21.9919ZM16.1382 23.9695C19.1222 23.5473 21.7057 21.7758 22.8593 19.211L21.0378 18.3917C20.2041 20.2453 18.263 21.6517 15.8584 21.9919L16.1382 23.9695ZM17.3254 8.29863C19.4184 8.68366 20.9823 10.0425 21.4757 11.6921L23.3892 11.1197C22.6477 8.64088 20.3965 6.83282 17.6868 6.33433L17.3254 8.29863ZM6.8928 6.33433C4.18303 6.83282 1.93184 8.64088 1.19041 11.1197L3.10392 11.6921C3.59729 10.0425 5.16115 8.68366 7.25416 8.29863L6.8928 6.33433ZM15.6216 7.17284L15.3379 7.75962L17.1361 8.62884L17.4198 8.04206L15.6216 7.17284ZM7.15978 8.04205L7.44342 8.62884L9.24162 7.75962L8.95798 7.17284L7.15978 8.04205ZM11.4349 2.60057L11.5912 2.5763L11.285 0.602651L11.1286 0.626918L11.4349 2.60057ZM12.9883 2.5763L13.1447 2.60057L13.4509 0.626917L13.2945 0.602651L12.9883 2.5763ZM15.88 4.84323C16.0677 5.61997 15.9808 6.42972 15.6216 7.17284L17.4198 8.04206C17.9764 6.89056 18.1197 5.60834 17.8213 4.37402L15.88 4.84323ZM6.75822 4.37402C6.45989 5.60834 6.60317 6.89056 7.15978 8.04206L8.95798 7.17284C8.59877 6.42972 8.51185 5.61997 8.69959 4.84323L6.75822 4.37402ZM11.5912 2.5763C12.0531 2.50464 12.5265 2.50464 12.9883 2.5763L13.2945 0.602651C12.6298 0.499507 11.9498 0.499507 11.285 0.602651L11.5912 2.5763ZM17.8213 4.37402C17.3397 2.38118 15.556 0.953527 13.4509 0.626917L13.1447 2.60057C14.5922 2.82515 15.62 3.76751 15.88 4.84323L17.8213 4.37402ZM8.69959 4.84323C8.95958 3.76751 9.98741 2.82515 11.4348 2.60057L11.1286 0.626918C9.0236 0.953527 7.23987 2.38118 6.75822 4.37402L8.69959 4.84323Z" fill="white"/>
</svg>
