<svg width="22" height="27" viewBox="0 0 22 27" fill="none" xmlns="http://www.w3.org/2000/svg">
<path d="M1.55579 23.3403C1.55579 20.1272 3.81579 17.3904 6.88721 16.884L7.16387 16.8384C9.6233 16.4329 12.1294 16.4329 14.5888 16.8384L14.8655 16.884C17.9369 17.3904 20.1969 20.1272 20.1969 23.3403C20.1969 24.7291 19.1071 25.8549 17.7628 25.8549H3.98996C2.6456 25.8549 1.55579 24.7291 1.55579 23.3403Z" stroke="white" stroke-width="1.99727"/>
<path d="M16.3134 7.13052C16.3134 10.026 13.8792 12.3733 10.8764 12.3733C7.87361 12.3733 5.43939 10.026 5.43939 7.13052C5.43939 4.23499 7.87361 1.8877 10.8764 1.8877C13.8792 1.8877 16.3134 4.23499 16.3134 7.13052Z" stroke="white" stroke-width="1.99727"/>
</svg>
